<?xml version="1.0" encoding="iso-8859-1"?>
<!-- Generator: Adobe Illustrator 19.0.0, SVG Export Plug-In . SVG Version: 6.00 Build 0)  -->
<svg version="1.1" id="Layer_1" xmlns="http://www.w3.org/2000/svg" xmlns:xlink="http://www.w3.org/1999/xlink" x="0px" y="0px"
	 viewBox="0 0 512 512" style="enable-background:new 0 0 512 512;" xml:space="preserve">
<path style="fill:#FFAF00;" d="M491.106,318.875c-9.753-9.753-138.243-128.345-177.291-162.498
	c-16.903-14.787-37.606-24.127-57.815-24.128c-20.208,0-40.91,9.338-57.815,24.127C159.138,190.53,30.646,309.122,20.895,318.874
	c-13.927,13.926-13.928,36.507,0,50.433c11.725,11.725,29.584,13.577,43.248,5.556c-0.001,0.001,115.382-75.207,146.856-93.915
	c26.189-15.567,45.1-15.018,45.1-15.018s18.713-0.548,44.901,15.019c31.475,18.708,146.857,93.915,146.859,93.914
	c13.662,8.022,31.52,6.168,43.247-5.556C505.033,355.38,505.033,332.8,491.106,318.875z"/>
<path style="fill:#FF1A1A;" d="M90.362,357.823c10.12-6.563,22.346-14.478,35.194-22.765l-58.891-58.894
	c-11.739,10.849-22.119,20.478-30.068,27.89L90.362,357.823z"/>
<path style="fill:#1EB615;" d="M386.467,335.073c12.849,8.288,25.075,16.203,35.194,22.765l53.763-53.763
	c-7.949-7.413-18.328-17.041-30.069-27.89L386.467,335.073z"/>
<path d="M116.153,288.134c-2.82,0-5.632-1.135-7.691-3.374c-3.908-4.248-3.632-10.858,0.614-14.764
	c30.132-27.723,57.529-52.705,75.164-68.538c4.295-3.856,10.9-3.499,14.756,0.794c3.856,4.293,3.499,10.9-0.794,14.756
	c-17.575,15.78-44.902,40.698-74.975,68.367C121.218,287.222,118.681,288.134,116.153,288.134z"/>
<path d="M217.531,197.804c-3.44,0-6.808-1.697-8.803-4.807c-3.117-4.856-1.707-11.32,3.149-14.437l0.49-0.313
	c4.878-3.085,11.332-1.632,14.416,3.244c3.086,4.877,1.632,11.332-3.244,14.416l-0.374,0.238
	C221.418,197.268,219.463,197.804,217.531,197.804z"/>
<path d="M498.495,311.486c-9.845-9.844-139.155-129.173-177.8-162.974c-19.688-17.224-42.663-26.711-64.695-26.712
	c-22.027,0-45.004,9.486-64.695,26.71C166.28,170.4,16.972,308.018,13.506,311.485C4.797,320.194,0,331.774,0,344.09
	s4.796,23.896,13.506,32.605c8.708,8.708,20.287,13.504,32.602,13.504c8.21,0,16.276-2.188,23.324-6.326l-0.002-0.004
	c0.163-0.094,0.324-0.193,0.484-0.297c1.362-0.887,124.728-80.748,146.424-93.644c22.543-13.399,38.836-13.553,39.457-13.555
	c0.267,0.014,0.28,0.009,0.544,0.002c0.674,0,16.78,0.154,39.323,13.554c29.331,17.435,146.64,93.768,146.92,93.924l-0.013,0.019
	c7.049,4.139,15.114,6.326,23.324,6.327c12.313,0,23.893-4.797,32.602-13.504C507.204,367.986,512,356.406,512,344.09
	S507.203,320.194,498.495,311.486z M403.007,333.311l42.634-42.635c5.323,4.925,10.275,9.516,14.739,13.665l-40.129,40.129
	C414.832,340.959,409.034,337.205,403.007,333.311z M91.774,344.458L51.64,304.322c4.465-4.149,9.419-8.741,14.739-13.664
	L109.02,333.3C102.963,337.213,97.158,340.969,91.774,344.458z M58.661,365.964c-3.798,2.184-8.132,3.337-12.552,3.337
	c-6.733,0-13.064-2.623-17.826-7.383c-4.762-4.763-7.384-11.094-7.384-17.828c0-6.733,2.623-13.065,7.385-17.829
	c1.148-1.148,3.962-3.822,8.066-7.676l37.499,37.5C65.662,361.404,60.11,365.019,58.661,365.964z M256.339,255.479
	c-0.186-0.001-0.301-0.001-0.483,0c-3.75,0-23.795,0.795-50.196,16.487c-14.686,8.73-47.643,29.759-78.675,49.743L81.74,276.463
	c43.061-39.73,99.88-91.717,123.323-112.223c15.652-13.69,34.216-21.542,50.935-21.542c16.723,0.001,35.288,7.853,50.938,21.544
	c23.432,20.495,80.273,72.501,123.343,112.24l-45.238,45.239c-31.148-20.061-63.9-40.956-78.703-49.754
	C279.939,256.273,260.056,255.479,256.339,255.479z M483.719,361.918c-4.763,4.762-11.093,7.383-17.826,7.383
	c-4.419-0.001-8.755-1.154-12.552-3.338l-0.204-0.133c-3.135-2.041-8.334-5.425-14.96-9.73l37.495-37.495
	c4.092,3.842,6.898,6.51,8.046,7.658c4.763,4.762,7.384,11.093,7.384,17.827S488.479,357.157,483.719,361.918z"/>
<g>
</g>
<g>
</g>
<g>
</g>
<g>
</g>
<g>
</g>
<g>
</g>
<g>
</g>
<g>
</g>
<g>
</g>
<g>
</g>
<g>
</g>
<g>
</g>
<g>
</g>
<g>
</g>
<g>
</g>
</svg>
